<svg width="130" height="30" viewBox="0 0 130 30" fill="none" xmlns="http://www.w3.org/2000/svg">
<path d="M82.3571 10.7083H79.675C79.5872 10.7046 79.5005 10.729 79.4275 10.778C79.3545 10.8269 79.2989 10.8978 79.2689 10.9804L76.9699 17.835L74.5369 10.9842C74.5092 10.9043 74.4576 10.8349 74.389 10.7856C74.3204 10.7362 74.2382 10.7092 74.1537 10.7083H71.5981C71.5135 10.7092 71.4314 10.7362 71.3628 10.7856C71.2942 10.8349 71.2425 10.9043 71.2149 10.9842L68.8125 17.835L66.5135 10.9804C66.4823 10.8978 66.4259 10.8271 66.3524 10.7783C66.2788 10.7295 66.1918 10.705 66.1036 10.7083H63.4215C63.1724 10.7083 63.0383 10.8462 63.1494 11.0915L67.0078 21.5517C67.0384 21.6339 67.094 21.7045 67.1669 21.7533C67.2398 21.8022 67.3263 21.8268 67.414 21.8237H70.0233C70.1116 21.8276 70.1989 21.8034 70.2726 21.7545C70.3463 21.7056 70.4025 21.6346 70.4333 21.5517L72.8855 15.107L75.3338 21.5517C75.3646 21.6346 75.4208 21.7056 75.4945 21.7545C75.5682 21.8034 75.6555 21.8276 75.7438 21.8237H78.3761C78.4639 21.8274 78.5506 21.803 78.6236 21.7541C78.6967 21.7052 78.7522 21.6343 78.7823 21.5517L82.6407 11.0915C82.7211 10.8462 82.6062 10.7083 82.3571 10.7083Z" fill="black" fill-opacity="0.8"/>
<path d="M95.3462 15.2487V21.4865C95.3489 21.5317 95.3421 21.5769 95.3262 21.6193C95.3103 21.6617 95.2856 21.7002 95.2538 21.7324C95.222 21.7645 95.1837 21.7897 95.1415 21.8061C95.0994 21.8225 95.0542 21.8298 95.009 21.8275H92.2847C92.2394 21.8297 92.1941 21.8224 92.1517 21.806C92.1093 21.7897 92.0709 21.7646 92.0387 21.7325C92.0066 21.7004 91.9816 21.6619 91.9652 21.6196C91.9489 21.5772 91.9415 21.5319 91.9437 21.4865V15.9269C91.9437 14.1337 90.9475 13.6279 90.0279 13.6279C88.4953 13.6279 87.8708 15.1261 87.8708 15.6702V21.5018C87.8736 21.5474 87.8667 21.5929 87.8505 21.6356C87.8344 21.6782 87.8093 21.7169 87.7771 21.7492C87.7449 21.7814 87.7061 21.8065 87.6635 21.8226C87.6208 21.8388 87.5753 21.8457 87.5297 21.8429H84.8093C84.7638 21.8457 84.7182 21.8388 84.6756 21.8226C84.6329 21.8065 84.5942 21.7814 84.562 21.7492C84.5297 21.7169 84.5047 21.6782 84.4886 21.6356C84.4724 21.5929 84.4655 21.5474 84.4683 21.5018V5.60462C84.4655 5.55911 84.4724 5.51352 84.4886 5.47088C84.5047 5.42824 84.5297 5.38951 84.562 5.35727C84.5942 5.32503 84.6329 5.30001 84.6756 5.28386C84.7182 5.26771 84.7638 5.26081 84.8093 5.26361H87.5297C87.5753 5.26081 87.6208 5.26771 87.6635 5.28386C87.7061 5.30001 87.7449 5.32503 87.7771 5.35727C87.8093 5.38951 87.8344 5.42824 87.8505 5.47088C87.8667 5.51352 87.8736 5.55911 87.8708 5.60462V12.4555C88.2109 11.8467 88.7081 11.3403 89.3106 10.9892C89.9131 10.638 90.5988 10.455 91.2962 10.4592C93.5568 10.4592 95.3462 12.2754 95.3462 15.2487Z" fill="black" fill-opacity="0.8"/>
<path d="M109.056 11.0493V21.4865C109.058 21.5318 109.05 21.5772 109.034 21.6195C109.018 21.6619 108.993 21.7004 108.961 21.7325C108.928 21.7646 108.89 21.7896 108.848 21.806C108.805 21.8224 108.76 21.8297 108.715 21.8275H106.239C106.195 21.828 106.15 21.8195 106.109 21.8025C106.067 21.7855 106.03 21.7604 105.998 21.7286C105.967 21.6967 105.942 21.6589 105.926 21.6173C105.909 21.5757 105.901 21.5312 105.902 21.4865L105.833 20.6704C105.441 21.1291 104.954 21.4968 104.406 21.7476C103.857 21.9984 103.26 22.1264 102.657 22.1225C99.5685 22.1225 97.2926 19.5362 97.2926 16.2909C97.2926 13.0455 99.5609 10.4592 102.657 10.4592C103.266 10.4659 103.867 10.6068 104.416 10.8716C104.965 11.1365 105.449 11.5189 105.833 11.9918L105.902 11.0608C105.901 11.016 105.909 10.9715 105.926 10.9299C105.942 10.8883 105.967 10.8505 105.998 10.8187C106.03 10.7869 106.067 10.7617 106.109 10.7447C106.15 10.7277 106.195 10.7192 106.239 10.7197H108.715C108.759 10.7176 108.803 10.7247 108.845 10.7403C108.886 10.756 108.924 10.78 108.956 10.8109C108.988 10.8417 109.013 10.8788 109.031 10.9198C109.048 10.9608 109.056 11.0049 109.056 11.0493ZM105.734 16.2679C105.734 14.7352 104.638 13.467 103.166 13.467C101.695 13.467 100.572 14.6816 100.572 16.2679C100.572 17.8541 101.672 19.0917 103.166 19.0917C104.661 19.0917 105.734 17.7852 105.734 16.2679Z" fill="black" fill-opacity="0.8"/>
<path d="M112.079 5.26362H114.803C114.848 5.26143 114.894 5.26875 114.936 5.28512C114.978 5.30148 115.017 5.32652 115.049 5.35863C115.081 5.39074 115.106 5.42922 115.122 5.47158C115.139 5.51395 115.146 5.55928 115.144 5.60464V21.4865C115.146 21.5319 115.139 21.5772 115.122 21.6196C115.106 21.6619 115.081 21.7004 115.049 21.7325C115.017 21.7646 114.978 21.7897 114.936 21.806C114.894 21.8224 114.848 21.8297 114.803 21.8275H112.079C112.033 21.8297 111.988 21.8224 111.946 21.806C111.903 21.7897 111.865 21.7646 111.833 21.7325C111.801 21.7004 111.776 21.6619 111.759 21.6196C111.743 21.5772 111.736 21.5319 111.738 21.4865V5.60464C111.736 5.55928 111.743 5.51395 111.759 5.47158C111.776 5.42922 111.801 5.39074 111.833 5.35863C111.865 5.32652 111.903 5.30148 111.946 5.28512C111.988 5.26875 112.033 5.26143 112.079 5.26362Z" fill="black" fill-opacity="0.8"/>
<path d="M127.294 17.494H120.554C120.872 18.7431 121.872 19.4098 123.416 19.4098C124.184 19.416 124.935 19.1873 125.57 18.7546C125.604 18.7224 125.645 18.6979 125.689 18.6825C125.734 18.6671 125.781 18.6612 125.828 18.6652C125.875 18.6691 125.921 18.6829 125.962 18.7056C126.003 18.7282 126.039 18.7593 126.068 18.7967L127.248 19.9462C127.386 20.1033 127.386 20.2604 127.202 20.4443C126.659 20.9825 126.015 21.4079 125.306 21.6959C124.598 21.9839 123.84 22.1289 123.075 22.1225C119.581 22.1225 117.175 19.5592 117.175 16.2909C117.175 13.0225 119.581 10.4592 122.826 10.4592C126.072 10.4592 128.11 13.0225 128.11 16.0878C128.11 17.0189 127.999 17.494 127.294 17.494ZM120.508 15.3368H125.106C124.899 13.9766 123.957 13.3176 122.857 13.3176C122.283 13.2956 121.722 13.4915 121.286 13.866C120.85 14.2405 120.573 14.7659 120.508 15.3368Z" fill="black" fill-opacity="0.8"/>
<path d="M17.5361 10.6645L13.1203 21.9288H16.8764L17.4066 20.4393H21.6443L22.1746 21.9288H25.9307L21.5148 10.6645H17.5361ZM18.2647 17.7315L19.5275 14.2142L20.7863 17.7315H18.2647Z" fill="black" fill-opacity="0.8"/>
<path d="M41.5662 17.6505H46.7025V14.9427H41.5662V13.4249H46.7552V10.6645H37.9761V21.9288H46.8685V19.1683H41.5662V17.6505Z" fill="black" fill-opacity="0.8"/>
<path d="M30.4113 18.0715L27.7601 10.6645H24.0081L28.4239 21.9288H32.3986L36.8185 10.6645H33.0624L30.4113 18.0715Z" fill="black" fill-opacity="0.8"/>
<path d="M8.32399 16.6953L4.12672 10.6645H0.649902V21.9288H4.29267V15.902L8.48994 21.9288H11.9668V10.6645H8.32399V16.6953Z" fill="black" fill-opacity="0.8"/>
<path d="M56.4975 18.0634L56.8415 17.9217C58.1489 17.3753 58.8167 16.1894 58.8167 14.6837C58.8167 13.259 58.2987 12.2066 57.2746 11.555C56.3235 10.9478 55.089 10.6645 53.389 10.6645H48.6332V21.9288H52.1707V18.7838H53.4376L55.5909 21.9288H59.347L56.4975 18.0634ZM54.0447 15.9101H52.1141V13.5382H54.0447C54.3593 13.5382 54.6609 13.6632 54.8833 13.8856C55.1057 14.108 55.2306 14.4097 55.2306 14.7242C55.2306 15.0387 55.1057 15.3403 54.8833 15.5627C54.6609 15.7851 54.3593 15.9101 54.0447 15.9101Z" fill="black" fill-opacity="0.8"/>
</svg>
